HIERARCHY
ROOT root     
{
	OFFSET 0.0000 0.0000 0.0000
	CHANNELS 6 Xposition Yposition Zposition Zrotation Yrotation Xrotation
	JOINT pelvis   
	{
		OFFSET 0.0000 0.0000 0.0000
		CHANNELS 3 Zrotation Yrotation Xrotation
		JOINT thorax   
		{
			OFFSET 0.0000 23.0750 -5.0000
			CHANNELS 3 Zrotation Yrotation Xrotation
			JOINT rclavicle
			{
				OFFSET 0.0000 28.0009 0.0000
				CHANNELS 3 Zrotation Yrotation Xrotation
				JOINT rhumerus 
				{
					OFFSET -18.5725 5.5939 0.0000
					CHANNELS 3 Zrotation Yrotation Xrotation
					JOINT rradius  
					{
						OFFSET -24.8459 0.0000 0.0000
						CHANNELS 3 Zrotation Yrotation Xrotation
						JOINT rhand    
						{
							OFFSET -24.5477 0.0000 0.0000
							CHANNELS 3 Zrotation Yrotation Xrotation
							End Site
							{
								OFFSET -8.1826 0.0000 0.0000
							}
						}
					}
				}
			}
			JOINT lclavicle
			{
				OFFSET 0.0000 28.0009 0.0000
				CHANNELS 3 Zrotation Yrotation Xrotation
				JOINT lhumerus 
				{
					OFFSET 18.5725 5.5939 0.0000
					CHANNELS 3 Zrotation Yrotation Xrotation
					JOINT lradius  
					{
						OFFSET 24.8459 0.0000 0.0000
						CHANNELS 3 Zrotation Yrotation Xrotation
						JOINT lhand    
						{
							OFFSET 24.5477 0.0000 0.0000
							CHANNELS 3 Zrotation Yrotation Xrotation
							End Site
							{
								OFFSET 8.1826 0.0000 0.0000
							}
						}
					}
				}
			}
			JOINT head     
			{
				OFFSET 0.0000 35.2030 0.0000
				CHANNELS 3 Zrotation Yrotation Xrotation
				End Site
				{
					OFFSET 0.0000 11.7343 0.0000
				}
			}
		}
		JOINT rfemur   
		{
			OFFSET -8.2817 0.0000 0.0000
			CHANNELS 3 Zrotation Yrotation Xrotation
			JOINT rtibia   
			{
				OFFSET 0.0000 -43.3627 0.0000
				CHANNELS 3 Zrotation Yrotation Xrotation
				JOINT rfoot    
				{
					OFFSET 0.0000 -38.2947 0.0000
					CHANNELS 3 Zrotation Yrotation Xrotation
					JOINT rtoes    
					{
						OFFSET 0.0000 0.0000 16.6054
						CHANNELS 3 Zrotation Yrotation Xrotation
						End Site
						{
							OFFSET 0.0000 0.0000 5.5351
						}
					}
				}
			}
		}
		JOINT lfemur   
		{
			OFFSET 8.2817 0.0000 0.0000
			CHANNELS 3 Zrotation Yrotation Xrotation
			JOINT ltibia   
			{
				OFFSET 0.0000 -43.3627 0.0000
				CHANNELS 3 Zrotation Yrotation Xrotation
				JOINT lfoot    
				{
					OFFSET 0.0000 -38.2947 0.0000
					CHANNELS 3 Zrotation Yrotation Xrotation
					JOINT ltoes    
					{
						OFFSET 0.0000 0.0000 16.6054
						CHANNELS 3 Zrotation Yrotation Xrotation
						End Site
						{
							OFFSET 0.0000 0.0000 5.5351
						}
					}
				}
			}
		}
	}
}
MOTION
Frames: 7
Frame Time: .0333333
-25.542 80.987 -2.385 162.496 82.1127 -175.514 0 -0 0 16.8411 -19.2104 -15.8501 24.5322 -10.9208 -5.66958e-05 56.0081 3.64632 -36.7046 -5.30662e-07 64.5578 -8.40112e-07 -33.533 -4.06523 1.22522 -24.1256 14.508 0.000126204 -30.835 -19.1667 3.28093 180 -59.4009 180 12.5048 -6.05015 -0.663425 -27.8903 7.85179 -14.245 2.84801 -2.91817 -40.5913 -0 -0 48.3634 -6.58252e-05 -10.5113 -12.8439 2.36192 -6.10567e-06 -23.4736 4.67935 2.12016 2.68897 -0 -0 34.4413 -1.15969e-05 -3.61534 32.7128 -1.95565 -6.11804e-06 -40.0006 
-24.406 81.107 -2.2398 163.113 81.7938 -174.967 0 -0 0 16.7314 -19.2154 -15.8149 24.7066 -10.9794 2.00571e-05 56.5777 3.70812 -35.5964 -8.31443e-07 64.2217 -5.21784e-07 -33.5498 -4.48058 1.35122 -24.2803 14.5086 -9.8771e-05 -31.3045 -18.8675 5.16905 180 -60.8308 -180 11.696 -6.0038 -0.615503 -27.6091 8.12989 -13.85 3.11619 -3.09347 -39.5766 -0 -0 48.0779 8.14361e-05 -10.7266 -12.9933 2.43882 -7.11751e-06 -23.097 5.03271 2.25315 1.50248 -0 -0 36.5739 -1.4888e-05 -1.90565 31.5724 -0.997998 8.42248e-08 -39.1698 
-23.296 81.254 -2.1054 163.354 81.5385 -174.776 0 -0 0 16.5157 -19.1328 -15.7391 24.8661 -10.9918 0.000100808 57.083 3.75848 -34.3918 -5.14468e-07 63.9373 -8.24309e-07 -33.2935 -4.68108 1.40033 -24.4103 14.498 8.49918e-05 -31.5493 -18.5446 6.91193 180 -62.427 -180 10.8764 -5.86821 -0.55909 -27.2576 8.36201 -13.4597 3.31411 -3.2063 -38.6002 -0 -0 47.7845 -5.86003e-05 -10.9119 -13.0219 2.48748 3.55738e-06 -22.7522 5.28026 2.42304 0.221898 -0 -0 38.6977 1.74298e-06 -0.221998 30.2894 -0.111998 -4.23989e-08 -38.774 
-22.21 81.426 -1.9821 163.295 81.3634 -174.872 0 -0 0 16.2133 -18.9684 -15.614 25.0058 -10.9475 2.06975e-05 57.5162 3.81463 -33.1225 -5.08319e-07 63.6942 -8.18314e-07 -32.774 -4.66655 1.37301 -24.523 14.4751 -6.12815e-05 -31.5654 -18.1947 8.48803 -180 -64.1558 180 10.0817 -5.65178 -0.498896 -26.8614 8.55225 -13.0871 3.45271 -3.27261 -37.6476 -0 -0 47.4778 1.95475e-05 -11.0552 -12.9424 2.50567 -2.01485e-05 -22.5815 5.4278 2.62254 -1.13093 -0 -0 40.7812 1.28443e-05 1.37406 28.9121 0.664407 -4.08347e-06 -38.6743 
-21.143 81.62 -1.8694 163.02 81.2582 -175.183 0 -0 0 15.841 -18.7329 -15.4313 25.1176 -10.8409 8.30362e-05 57.8722 3.89671 -31.8152 -0 63.4851 -0 -32.0186 -4.44716 1.27653 -24.6213 14.4364 3.31559e-05 -31.3588 -17.8208 9.88738 180 -65.9897 180 9.34169 -5.36728 -0.438805 -26.4466 8.70479 -12.7425 3.54527 -3.31325 -36.7011 -0 -0 47.1403 -1.30516e-05 -11.1442 -12.7637 2.49216 9.26897e-06 -22.6985 5.48522 2.83978 -2.53171 -0 -0 42.7928 -8.13335e-07 2.83958 27.4878 1.31153 2.87235e-06 -38.74 
-20.088 81.836 -1.767 162.589 81.2161 -175.661 0 -0 0 15.4142 -18.4394 -15.1834 25.1991 -10.671 2.35362e-05 58.1511 4.02139 -30.5008 -8.08924e-07 63.3072 -4.98693e-07 -31.0662 -4.04254 1.12409 -24.7073 14.3797 3.42739e-05 -30.9435 -17.4212 11.1073 -180 -67.9077 180 8.67861 -5.02991 -0.381896 -26.0316 8.82557 -12.4283 3.60379 -3.35088 -35.7335 -0 -0 46.7465 2.16768e-05 -11.1677 -12.4944 2.44569 -1.18923e-05 -23.1708 5.46362 3.05998 -3.95472 -0 -0 44.703 1.95299e-05 4.15101 26.0581 1.82601 -9.73398e-06 -38.8516 
-19.042 82.07 -1.6745 162.047 81.2239 -176.273 0 -0 0 14.945 -18.1015 -14.8689 25.2472 -10.4433 -7.671e-05 58.3538 4.20595 -29.2029 -4.95085e-07 63.1573 -8.05417e-07 -29.97 -3.48177 0.932281 -24.7827 14.3014 -0.000108368 -30.3436 -16.9985 12.1514 -180 -69.8896 180 8.10613 -4.65545 -0.330098 -25.627 8.92023 -12.1421 3.63791 -3.40616 -34.7224 -0 -0 46.2729 -1.67279e-05 -11.1181 -12.1392 2.36648 -1.48247e-05 -24.0224 5.37351 3.26712 -5.37646 -0 -0 46.4824 2.71087e-05 5.30064 24.6558 2.21634 -1.6518e-05 -38.8887 
